<?xml version="1.0" encoding="UTF-8" standalone="no"?>
<!-- Created with Inkscape (http://www.inkscape.org/) -->

<svg width="512" height="512" viewBox="0 0 512 512" version="1.1" id="svg5" inkscape:version="1.2.2 (732a01da63, 2022-12-09)"
    sodipodi:docname="icon.svg" xml:space="preserve" xmlns:inkscape="http://www.inkscape.org/namespaces/inkscape"
    xmlns:sodipodi="http://sodipodi.sourceforge.net/DTD/sodipodi-0.dtd" xmlns:xlink="http://www.w3.org/1999/xlink"
    xmlns="http://www.w3.org/2000/svg" xmlns:rdf="http://www.w3.org/1999/02/22-rdf-syntax-ns#"
    xmlns:cc="http://creativecommons.org/ns#" xmlns:dc="http://purl.org/dc/elements/1.1/"><title
     id="title256">Icona Escalar Alcoià i Comtat</title><sodipodi:namedview
     id="namedview7"
     pagecolor="#ffffff"
     bordercolor="#000000"
     borderopacity="0.25"
     inkscape:showpageshadow="2"
     inkscape:pageopacity="0.0"
     inkscape:pagecheckerboard="0"
     inkscape:deskcolor="#d1d1d1"
     inkscape:document-units="px"
     showgrid="false"
     inkscape:zoom="1.1449053"
     inkscape:cx="141.0597"
     inkscape:cy="276.8788"
     inkscape:window-width="1920"
     inkscape:window-height="1009"
     inkscape:window-x="892"
     inkscape:window-y="218"
     inkscape:window-maximized="1"
     inkscape:current-layer="layer1" /><defs
     id="defs2"><linearGradient
       inkscape:collect="always"
       id="linearGradient177"><stop
         style="stop-color:#29b6f6;stop-opacity:1;"
         offset="0"
         id="stop173" /><stop
         style="stop-color:#0288d1;stop-opacity:1;"
         offset="1"
         id="stop175" /></linearGradient><radialGradient
       inkscape:collect="always"
       xlink:href="#linearGradient177"
       id="radialGradient179"
       cx="262.90384"
       cy="247.18201"
       fx="262.90384"
       fy="247.18201"
       r="256"
       gradientUnits="userSpaceOnUse"
       gradientTransform="matrix(0.96093791,-0.98292967,0.99844039,0.97610596,-236.52692,264.32218)" /></defs><g
     inkscape:label="Capa 1"
     inkscape:groupmode="layer"
     id="layer1"><rect
       style="fill:url(#radialGradient179);fill-opacity:1"
       id="rect171"
       width="512"
       height="512"
       x="0"
       y="0"
       inkscape:label="bg" /><g
       id="Capa_1-2"
       data-name="Capa 1"
       transform="matrix(15.552386,0,0,15.552386,21.004235,33.827795)"><path
         d="m 10.5847,9.1822 a 5.2461,5.2461 0 0 1 7.2285,1.5615 l 3.3413,5.1831 a 5.2294,5.2294 0 0 1 -8.79,5.667 L 9.0236,16.41 a 5.2428,5.2428 0 0 1 1.5611,-7.2275 z m 1.2671,1.9008 a 3.9348,3.9348 0 0 0 -1.17,5.42 l 2.5048,3.8852 a 3.9205261,3.9205261 0 0 0 6.59,-4.249 L 17.2712,12.253 a 3.9333,3.9333 0 0 0 -5.4194,-1.17 z"
         stroke-miterlimit="22.9256"
         id="path939"
         stroke-width="0.216"
         stroke="#ffffff"
         fill-rule="evenodd"
         fill="#ffffff"
         style="display:inline" /><rect
         x="10.6514"
         y="15.7967"
         width="1.8769"
         height="6.7014999"
         transform="rotate(-32.8299,11.589942,19.1474)"
         id="rect941"
         fill="#ffffff"
         style="display:inline"
         inkscape:label="gatillo" /><path
         d="m 23.51,32.384 a 4.9112,4.9112 0 0 1 2.5876,-1.3655 l -6.8352,-10.602 a 0.7431,0.7431 0 0 0 -1.021,-0.22 l -1.2369,0.7994 a 0.7383,0.7383 0 0 0 -0.2216,1.0186 l 6.7032,10.3975 z"
         stroke-miterlimit="22.9256"
         id="path947"
         stroke-width="0.216"
         stroke="#ffffff"
         fill-rule="evenodd"
         fill="#ffffff"
         style="display:inline"
         inkscape:label="cinta" /><path
         id="path955"
         style="stroke:none;fill:#ffffff;fill-opacity:1"
         inkscape:label="xapa"
         d="M 12.752242 1.1300227 C 10.633545 1.1300227 8.9022252 3.6207242 8.9022252 6.6759211 C 8.9022252 9.731118 10.633245 12.220815 12.752242 12.220815 L 12.752242 12.220689 C 14.87424 12.220689 16.599246 9.7319925 16.599246 6.6757955 C 16.599246 3.6195986 14.87424 1.1300227 12.752242 1.1300227 z M 12.728005 1.9060039 L 13.400003 2.3420302 L 14.07401 2.7770519 L 14.07401 3.648979 L 14.07401 4.5220364 L 13.400003 4.957058 L 12.728005 5.3939635 L 12.056007 4.957058 L 11.383004 4.5220364 L 11.383004 3.648979 L 11.383004 2.7770519 L 12.056007 2.3420302 L 12.728005 1.9060039 z M 12.901561 5.7817657 C 13.90156 5.7817657 14.715491 6.9668303 14.715491 8.4205288 C 14.715491 9.8742274 13.90156 11.058538 12.901561 11.058538 C 11.899062 11.058538 11.085748 9.8736274 11.085748 8.4205288 C 11.085748 6.9674303 11.899062 5.7817657 12.901561 5.7817657 z " /></g></g><metadata
     id="metadata254"><rdf:RDF><cc:Work
         rdf:about=""><dc:title>Icona Escalar Alcoià i Comtat</dc:title></cc:Work></rdf:RDF></metadata></svg>
